<?xml version="1.0" encoding="iso-8859-1"?>
<!-- Generator: Adobe Illustrator 19.0.0, SVG Export Plug-In . SVG Version: 6.00 Build 0)  -->
<svg version="1.1" id="Capa_1" xmlns="http://www.w3.org/2000/svg" xmlns:xlink="http://www.w3.org/1999/xlink" x="0px" y="0px"
	 viewBox="0 0 512 512" fill="currentColor" stroke="currentColor" stroke-width="2" stroke-linecap="round" stroke-linejoin="round" style="enable-background:new 0 0 512 512;" xml:space="preserve">
<g>
	<g>
		<circle cx="116.349" cy="68.18" r="39.806"/>
	</g>
</g>
<g>
	<g>
		<path d="M447.311,120.671c-79.222,0-51.991-0.692-88.235,0l-58.022-31.545l-26.74-76.286c-2.715-7.746-9.894-12.631-17.639-12.83
			C256.449-0.001,256.225,0.002,256,0c-0.225,0.002-0.45-0.001-0.675,0.009c-7.745,0.198-14.924,5.084-17.639,12.83l-26.741,76.285
			l-58.022,31.545c-36.244-0.692-9.013,0-88.235,0c-25.327,0-46.035,20.287-46.161,45.32v141.102
			c0,10.607,8.599,19.207,19.207,19.207c10.607,0,19.207-8.6,19.207-19.207V166.086c0-0.001,0-0.003,0-0.004
			c0.014-2.296,1.882-4.148,4.178-4.14c2.296,0.007,4.152,1.87,4.153,4.166l0.009,322.844c0,12.729,10.318,23.047,23.048,23.047
			c12.729,0,23.047-10.318,23.047-23.047V304.73h9.951v184.223c0,12.729,10.318,23.047,23.047,23.047
			c12.729,0,23.047-10.318,23.047-23.047c0-178.42,0-153.25,0-331.619c0.001,0-0.415-0.001-0.414-0.002l68.938-38.138
			c4.125-2.283,7.268-6.002,8.828-10.453L256,76.713l11.227,32.028c1.56,4.449,4.702,8.17,8.828,10.453l68.938,38.138
			c0.001,0.001-0.415,0.002-0.414,0.002c0,178.37,0,153.2,0,331.619c0,12.729,10.318,23.047,23.047,23.047
			c12.729,0,23.047-10.318,23.047-23.047V304.73h9.951v184.223c0,12.729,10.318,23.047,23.047,23.047
			c12.729,0,23.047-10.318,23.047-23.047l0.009-322.844c0-2.296,1.857-4.159,4.153-4.166c2.296-0.007,4.165,1.845,4.178,4.14
			c0,0.001,0,0.003,0,0.004v141.006c0,10.607,8.6,19.207,19.207,19.207c10.608,0,19.207-8.6,19.207-19.207V165.99
			C493.346,140.957,472.638,120.671,447.311,120.671z"/>
	</g>
</g>
<g>
	<g>
		<circle cx="395.655" cy="68.18" r="39.806"/>
	</g>
</g>
<g>
</g>
<g>
</g>
<g>
</g>
<g>
</g>
<g>
</g>
<g>
</g>
<g>
</g>
<g>
</g>
<g>
</g>
<g>
</g>
<g>
</g>
<g>
</g>
<g>
</g>
<g>
</g>
<g>
</g>
</svg>
