<svg id="Capa_1" enable-background="new 0 0 512 512" height="56" viewBox="0 0 512 512" fill="currentColor" stroke="currentColor" stroke-width="2" stroke-linecap="round" stroke-linejoin="round" width="56" xmlns="http://www.w3.org/2000/svg"><g><g><g><path d="m509.804 417.775-66.069-66.069c-2.928-2.928-7.676-2.928-10.604 0-2.929 2.928-2.929 7.676 0 10.604l7.022 7.022-58.645 58.645-23.911-23.911c-8.836-8.837-21.053-13.406-33.52-12.527l-26.663 1.872c-8.139.569-16.102-2.408-21.866-8.172l-75.311-75.311c-4.137-4.137-4.137-10.868 0-15.004 4.136-4.137 10.867-4.137 15.005 0l35.338 35.338c.183.183.373.355.569.515 1.374 1.121 3.054 1.682 4.733 1.682s3.358-.561 4.733-1.682c.196-.16.386-.332.569-.515 2.929-2.928 2.929-7.676 0-10.604l-76.617-76.617c-2.335-2.335-3.62-5.438-3.62-8.74 0-3.301 1.285-6.405 3.62-8.74 2.334-2.334 5.438-3.62 8.739-3.62 2.903 0 5.652.995 7.86 2.822l77.455 77.456c1.464 1.464 3.383 2.196 5.302 2.196s3.838-.732 5.302-2.196c.007-.007.013-.015.019-.022.007-.007.015-.013.022-.019 2.929-2.928 2.929-7.676 0-10.604l-109.45-109.368c-4.819-4.819-4.819-12.66 0-17.479 2.334-2.335 5.438-3.62 8.74-3.62 3.301 0 6.405 1.286 8.739 3.62l109.237 109.583c1.464 1.464 3.383 2.196 5.302 2.196s3.838-.732 5.302-2.196c.029-.029.054-.062.083-.091.03-.029.062-.053.091-.082 2.929-2.928 2.929-7.676 0-10.604l-98.788-98.788c-1.334-2.006-2.052-4.36-2.052-6.824 0-3.301 1.286-6.405 3.621-8.74 2.334-2.334 5.438-3.62 8.739-3.62 3.302 0 6.405 1.285 8.74 3.62l85.231 85.231c.097.097.2.181.3.272l9.391 12.27c2.517 3.288 7.223 3.913 10.512 1.397 3.288-2.517 3.914-7.223 1.397-10.512l-10.005-13.072c-2.019-3.393-2.569-7.35-1.548-11.178 1.049-3.933 3.603-7.157 7.191-9.078 6.787-3.633 15.252-1.337 19.273 5.224.156.254 43.628 55.25 43.628 55.25 5.114 6.466 7.131 14.814 5.535 22.903l-3.748 18.984c-1.811 9.17-.553 18.848 3.542 27.252 1.299 2.666 3.968 4.216 6.746 4.216 1.102 0 2.222-.244 3.279-.759 3.723-1.814 5.27-6.302 3.456-10.025-2.671-5.483-3.492-11.797-2.311-17.778l3.748-18.984c2.448-12.4-.644-25.197-8.484-35.11l-2.065-2.612c6.191-8.209 9.278-18.419 8.548-28.811l-1.859-26.477c-.566-8.058 2.386-15.957 8.098-21.67l82.374-82.374c2.929-2.928 2.929-7.676 0-10.604l-68.76-68.766c-2.928-2.928-7.676-2.928-10.604 0l-82.074 82.074c-6.588 6.588-15.978 9.442-25.118 7.639l-18.852-3.722c-12.328-2.435-25.051.641-34.906 8.435-.103.082-.205.166-.303.253l-13.183 11.605-13.183-11.605c-.099-.087-.2-.171-.303-.253-9.856-7.794-22.578-10.868-34.907-8.435l-18.851 3.722c-9.141 1.804-18.531-1.052-25.119-7.639l-82.072-82.074c-2.928-2.928-7.676-2.928-10.604 0l-68.764 68.763c-2.929 2.928-2.929 7.676 0 10.604l82.374 82.374c5.713 5.713 8.665 13.611 8.099 21.67l-1.859 26.476c-.819 11.666 3.158 23.111 10.954 31.742-7.796 8.631-11.773 20.076-10.954 31.742l1.859 26.477c.566 8.058-2.386 15.957-8.099 21.67l-82.374 82.374c-2.929 2.928-2.929 7.676 0 10.604l68.763 68.763c1.464 1.464 3.383 2.196 5.302 2.196s3.838-.732 5.302-2.196l82.074-82.074c6.588-6.588 15.979-9.446 25.118-7.639l18.852 3.722c12.327 2.436 25.051-.641 34.906-8.435.157-.124.309-.254.455-.391l14.996-13.946 6.978 6.978c8.836 8.837 21.056 13.409 33.52 12.527l26.664-1.872c8.131-.571 16.101 2.407 21.865 8.171l29.213 29.213.001.001 53.745 53.745c1.464 1.464 3.383 2.196 5.302 2.196s3.838-.732 5.302-2.196l69.25-69.25c2.928-2.928 2.928-7.676 0-10.604zm-74.067-387.498 58.158 58.158-42.762 42.762-58.158-58.158zm-156.803 90.167c6.388-4.984 14.599-6.942 22.552-5.371l18.852 3.722c14.055 2.777 28.497-1.617 38.628-11.748l23.405-23.405 58.158 58.158-23.706 23.706c-8.785 8.785-13.325 20.932-12.454 33.325l1.859 26.476c.379 5.401-.832 10.725-3.387 15.371l-30.994-39.189c-8.265-13.013-25.247-17.505-38.884-10.202-6.953 3.722-12.155 10.143-14.385 17.691l-65.645-65.645zm-260.831-32.009 58.158-58.158 42.762 42.762-58.158 58.158zm58.158 393.288-58.158-58.158 42.762-42.762 58.158 58.158zm156.727-90.109c-6.377 4.94-14.55 6.877-22.476 5.311l-18.852-3.722c-14.054-2.774-28.497 1.617-38.628 11.748l-23.405 23.405-58.158-58.158 23.706-23.706c8.785-8.785 13.325-20.932 12.454-33.325l-1.859-26.476c-.566-8.059 2.386-15.958 8.099-21.67l24.877-24.877c2.929-2.928 2.929-7.676 0-10.604-2.928-2.928-7.676-2.928-10.604 0l-15.786 15.786c-4.71-5.534-7.099-12.706-6.586-20.016l1.859-26.476c.871-12.394-3.669-24.54-12.454-33.325l-23.706-23.706 58.158-58.158 23.405 23.405c10.13 10.131 24.567 14.522 38.628 11.748l18.851-3.722c7.955-1.571 16.163.387 22.552 5.37l11.587 10.201-3.329 2.931c-3.819-1.964-8.074-3.011-12.491-3.011-7.307 0-14.177 2.846-19.344 8.012-3.241 3.241-5.568 7.153-6.853 11.422-4.208-2.535-9.039-3.889-14.078-3.889-7.307 0-14.177 2.846-19.344 8.013-9.932 9.933-10.611 25.662-2.046 36.393l-14.32 14.32c-2.929 2.928-2.929 7.676 0 10.604 2.928 2.928 7.676 2.928 10.604 0l14.195-14.195 7.077 7.077c-4.011 1.321-7.688 3.564-10.761 6.637-5.167 5.167-8.013 12.037-8.013 19.344s2.846 14.177 8.013 19.344l24.806 24.806c-3.334 1.241-6.461 3.193-9.137 5.868-9.984 9.984-9.984 26.23 0 36.214l57.721 57.721zm202.263 90.109-43.14-43.141 58.646-58.646 43.14 43.14z"/></g></g></g></svg>