<svg id="Capa_1" width="56" height="56" viewBox="0 0 512 512" fill="currentColor" stroke="currentColor" stroke-width="2" stroke-linecap="round" stroke-linejoin="round"  xmlns="http://www.w3.org/2000/svg"><g><path d="m448.191 352.006c-7.031-9.528-14.686-18.435-22.896-26.697 49.721-175.148 13.341-321.238-165.212-325.302-82.497-.755-126.462 57.971-134.668 108.527 9.577 6.685 8.097 6.396 23.701 15.463 1.161 55.104-9.54 100.094 36.629 140.635-107.007 29.931-178.432 132.938-172.163 243.377h481c2.29-55.966-12.66-110.941-46.391-156.003zm-188.109-321.997c152.103 3.367 178.17 123.286 140.103 273.372-22.991-17.436-49.448-30.502-77.716-38.733 22.421-19.271 36.647-47.823 36.647-79.638v-44c-93.79 4.206-166.125-25.468-199.36-45.592 7.646-20.37 32.254-65.409 100.326-65.409zm38 357v30h-88v-30zm-1.257-96-42.743 58.839-42.743-58.839zm-117.709-106v-46.086c34.112 14.921 85.778 31.206 150 32.052v14.035c0 41.355-33.645 75-75 75s-75-33.646-75-75.001zm-135.003 293c4.786-79.541 60.236-153.198 135.409-179.756l42.682 58.756h-42.122v90h148v-90h-42.122l42.682-58.756c75.173 26.557 130.624 100.216 135.409 179.756z"/></g></svg>