<svg id="Layer_1" data-name="Layer 1" xmlns="http://www.w3.org/2000/svg" viewBox="0 0 509.13 509.13"><defs><style>.cls-1{fill:#292c75;stroke:#231f20;stroke-miterlimit:10;}.cls-2,.cls-5{fill:#fff;}.cls-3{fill:#45c0b6;}.cls-4{fill:#e60c8a;}.cls-5{font-size:64px;font-family:JosefinSans-SemiBold, Josefin Sans;font-weight:600;}.cls-6{letter-spacing:-0.02em;}.cls-7{letter-spacing:-0.1em;}.cls-8{letter-spacing:-0.01em;}.cls-9{letter-spacing:0em;}</style></defs><title>cc_logo1</title><circle class="cls-1" cx="254.56" cy="254.56" r="254.06"/><path class="cls-2" d="M261.67,410.85a78.38,78.38,0,0,1-31.24-6.45l-47.26-20.55a179.61,179.61,0,0,0-53.74-14l-15.52-1.55a5,5,0,0,1-4.5-5V314.64a5,5,0,0,1,1-3c1.16-1.56,29-37.9,71.47-28.44A180.54,180.54,0,0,1,237,305.86a55.63,55.63,0,0,0,29.37,8.21h47.26a22.68,22.68,0,0,1,19.31,10.78L373.61,278a43.17,43.17,0,0,1,34.32-17h3a5,5,0,0,1,4.57,7l-36.81,83.66a65.6,65.6,0,0,1-43.84,37l-6.48,1.61L290.73,405.3A78.49,78.49,0,0,1,261.67,410.85Zm-142.26-52,11,1.1a189.39,189.39,0,0,1,56.73,14.78l47.26,20.55A68.76,68.76,0,0,0,287,396l38-15.2c.21-.08.43-.15.65-.21l6.8-1.7a55.53,55.53,0,0,0,37.12-31.3l33.58-76.31a33.34,33.34,0,0,0-21.78,12.92l-45.09,52v.58a22.72,22.72,0,0,1-22.7,22.7H247.65a79.46,79.46,0,0,0-25.17,4.09l-1.84-4.66-1.55-4.75.25-.08a89.48,89.48,0,0,1,28.31-4.59h65.94a12.71,12.71,0,1,0,0-25.42H266.33a65.61,65.61,0,0,1-34.63-9.71,170.38,170.38,0,0,0-52-21.39c-32.17-7.14-55.33,17.56-60.31,23.45v42.4Z" transform="translate(-1.5 -1.5)"/><path class="cls-3" d="M306.15,259.83q-11.52,0-25.78-7.11a5.05,5.05,0,0,1-2.47-2.79c-.38-1.08-9.31-26.76,4.88-45.75,10.31-13.8,29.69-20,57.65-18.46a5,5,0,0,1,4.7,4.74c.1,2,2.16,48.8-21.71,64.39A30.9,30.9,0,0,1,306.15,259.83ZM286.74,244.7c13.13,6.15,23.62,6.76,31.22,1.79,14.16-9.25,17.22-36.69,17.29-51-21.9-.53-36.81,4.4-44.47,14.65C281.67,222.36,285.21,239.14,286.74,244.7Z" transform="translate(-1.5 -1.5)"/><path class="cls-3" d="M229.76,194.38c-8.86,0-19.08-1.9-28-8.43-15.12-11.09-22.08-32.19-20.66-62.72a5,5,0,0,1,4.69-4.76c2.16-.12,53.31-2.85,70.52,23,8,12,7.36,27.78-1.95,46.82a5,5,0,0,1-2.76,2.5A68.92,68.92,0,0,1,229.76,194.38Zm20.12-8.3h0ZM190.93,128.3c-.43,24.46,5.19,41.13,16.73,49.59,13.83,10.13,32.7,5.82,38.63,4.09,6.79-14.73,7.37-26.49,1.71-35C237.48,131.2,206.63,128.12,190.93,128.3Z" transform="translate(-1.5 -1.5)"/><path class="cls-4" d="M268.77,322.31a3.71,3.71,0,0,1-.47,0,5,5,0,0,1-4.52-5.22q.44-8.82,1.48-16.74c2.07-35.35,1-117.67-51-140.45a5,5,0,0,1,4-9.15c30.67,13.42,50,46.83,55.79,96.62.52,4.46.91,8.86,1.21,13.15,13.7-34.64,34.68-46.88,35.92-47.58a5,5,0,1,1,4.91,8.69c-.52.31-32.68,19.61-40.75,79.13-.62,10.18-1.51,16.67-1.59,17.26A5,5,0,0,1,268.77,322.31Z" transform="translate(-1.5 -1.5)"/><text class="cls-5" transform="translate(125.4 93.02)"><tspan class="cls-6">R</tspan><tspan x="41.86" y="0">esi</tspan><tspan class="cls-7" x="120.06" y="0">T</tspan><tspan class="cls-8" x="150.72" y="0">o</tspan><tspan class="cls-9" x="185.34" y="0">wn</tspan></text></svg>