<svg id="Layer_1" data-name="Layer 1" xmlns="http://www.w3.org/2000/svg" viewBox="0 0 512 512"><defs><style>.cls-1{fill:#fff;}.cls-2{fill:#11d1c0;}.cls-3{fill:#e60b89;}.cls-4{fill:#020f80;}</style></defs><title>logo-new</title><circle class="cls-1" cx="256.06" cy="256.06" r="254.06"/><path class="cls-2" d="M309.38,303.4c-12.25,0-26-3.78-41.12-11.34a8,8,0,0,1-3.94-4.45c-.62-1.73-14.86-42.68,7.77-73,16.45-22,47.37-31.93,92-29.45a8,8,0,0,1,7.51,7.56c.16,3.16,3.44,77.85-34.64,102.72A49.29,49.29,0,0,1,309.38,303.4Zm-31-24.13c20.93,9.81,37.66,10.78,49.79,2.86,22.58-14.75,27.47-58.54,27.58-81.32-34.93-.86-58.72,7-70.93,23.36C270.32,243.64,276,270.41,278.42,279.27Z"/><path class="cls-2" d="M187.52,199c-14.13,0-30.43-3-44.65-13.44-24.13-17.69-35.22-51.35-33-100a8,8,0,0,1,7.49-7.59c3.45-.19,85-4.55,112.49,36.66,12.78,19.18,11.73,44.3-3.11,74.68a7.91,7.91,0,0,1-4.41,4A109.88,109.88,0,0,1,187.52,199Zm32.09-13.23h0Zm-94-92.17c-.69,39,8.28,65.6,26.69,79.1,22.05,16.15,52.16,9.29,61.62,6.53,10.83-23.5,11.75-42.26,2.72-55.81C199.84,98.23,150.64,93.31,125.59,93.6Z"/><path class="cls-3" d="M249.75,403.06c-.25,0-.5,0-.76,0a8,8,0,0,1-7.2-8.33c.46-9.38,1.27-18.27,2.36-26.69,3.31-56.39,1.6-187.71-81.42-224a8,8,0,0,1,6.38-14.6c48.93,21.41,79.71,74.7,89,154.12.83,7.12,1.46,14.13,1.92,21,21.87-55.26,55.32-74.78,57.31-75.9a8,8,0,0,1,7.83,13.88c-.84.49-52.14,31.27-65,126.21-1,16.24-2.39,26.59-2.53,27.54A8,8,0,0,1,249.75,403.06Z"/><path class="cls-4" d="M234.09,318.55l-67.31-61.14-.64-.58a6.22,6.22,0,0,0-1.44-1l-.07,0a6.2,6.2,0,0,0-5.29,0l-.07,0a6.22,6.22,0,0,0-1.44,1l-.63.58L89.88,318.55C86.05,322,87.6,329.22,95,329.66a2.18,2.18,0,0,0,1.6-.55l3.58-3.26v75.42a2.1,2.1,0,0,0,2.1,2.09H221.66a2.1,2.1,0,0,0,2.1-2.09V325.85l3.59,3.26a2.14,2.14,0,0,0,1.59.55C236.37,329.22,237.92,322,234.09,318.55Zm-84.4,72.37V354.1a12.46,12.46,0,0,1,13.05-12.54,12.33,12.33,0,0,1,11.54,12.33v37Zm61.63,0h-24.6v-37a25,25,0,0,0-24.88-24.69,24.54,24.54,0,0,0-24.59,24.69v37.32H112.66V314.54l49.18-44.89,49.48,44.89Z"/><path class="cls-4" d="M432,319.69l-66.41-60.33-.63-.57a6.12,6.12,0,0,0-1.43-1l-.06,0a6.14,6.14,0,0,0-5.23,0l-.06,0a5.86,5.86,0,0,0-1.42,1l-.63.56-66.42,60.34c-3.78,3.43-2.24,10.52,5.09,11a2.17,2.17,0,0,0,1.57-.55l3.54-3.21V401.3a2.06,2.06,0,0,0,2.06,2.06H419.72a2.06,2.06,0,0,0,2.06-2.06V326.89l3.54,3.21a2.17,2.17,0,0,0,1.57.55C434.23,330.21,435.76,323.12,432,319.69Zm-83.28,71.4V354.75a12.29,12.29,0,0,1,12.88-12.36A12.16,12.16,0,0,1,373,354.55v36.54Zm60.81,0H385.24V354.55a24.64,24.64,0,0,0-24.55-24.36,24.22,24.22,0,0,0-24.26,24.36v36.82H312.16V315.72l48.53-44.29,48.82,44.29Z"/></svg>