<svg id="Layer_1" data-name="Layer 1" xmlns="http://www.w3.org/2000/svg" viewBox="0 0 512 512"><defs><style>.cls-1{fill:#fff;}.cls-2{fill:#11d1c0;}.cls-3,.cls-5{fill:#e60b89;}.cls-4{fill:#020f80;}.cls-5{stroke:#e8068a;stroke-miterlimit:10;}</style></defs><title>resi-logo-white2</title><circle class="cls-1" cx="256.06" cy="256.06" r="254.06"/><path class="cls-2" d="M343.18,191q-20.15,0-45.06-12.43a8.82,8.82,0,0,1-4.31-4.87c-.68-1.89-16.28-46.76,8.51-79.94,18-24.12,51.9-35,100.75-32.26a8.71,8.71,0,0,1,8.22,8.28c.18,3.46,3.78,85.28-37.94,112.53A54,54,0,0,1,343.18,191Zm-33.92-26.44c22.93,10.75,41.26,11.81,54.55,3.13,24.74-16.16,30.08-64.12,30.21-89.09-38.27-.93-64.33,7.69-77.71,25.6C300.39,125.52,306.57,154.85,309.26,164.56Z"/><path class="cls-2" d="M182.49,191.64c-15.48,0-33.34-3.32-48.92-14.73C107.14,157.54,95,120.66,97.46,67.3a8.73,8.73,0,0,1,8.2-8.31c3.78-.21,93.16-5,123.23,40.16,14,21,12.86,48.54-3.4,81.82a8.76,8.76,0,0,1-4.83,4.36A120.63,120.63,0,0,1,182.49,191.64Zm35.16-14.5h0Zm-103-101c-.75,42.74,9.07,71.87,29.24,86.65C168,180.52,201,173,211.39,170c11.86-25.74,12.87-46.29,3-61.14C196,81.24,142.08,75.84,114.64,76.17Z"/><path class="cls-3" d="M269.15,345.48c.15-.94.27-1.89.38-2.84,0-.71,0-1.42.1-2.13,0-.46.12-.92.18-1.38.06-1.1.1-2.21.12-3.31a4.26,4.26,0,0,1,0-2.6c0-1.21,0-2.42,0-3.63-.26-2.39-.57-4.77-1-7.09s-.82-4.25-1.25-6.25a11.93,11.93,0,0,1-5-5.95c-.21.53-.43,1-.64,1.57a.16.16,0,0,1-.31,0c-.5-7.27-1.17-14.72-2.06-22.28-10.18-87-43.9-145.39-97.5-168.84a8.73,8.73,0,1,0-7,16c90.95,39.8,92.83,183.65,89.2,245.43h0q-1.77,13.68-2.56,28.88a8.59,8.59,0,0,0,.51,3.44,9.58,9.58,0,0,1,6.44,2.6,11.59,11.59,0,0,1,2.49-.27,10.77,10.77,0,0,1,4,.73l.26,0a10.73,10.73,0,0,1,1.64-.16h0a8.55,8.55,0,0,0,2-4.36c.14-1,1.69-12.38,2.77-30.17h0A288.63,288.63,0,0,1,269.11,347,5.74,5.74,0,0,1,269.15,345.48Z"/><path class="cls-4" d="M223.05,322.61l-73.73-67-.71-.64a6.38,6.38,0,0,0-1.58-1.07l-.07,0a6.77,6.77,0,0,0-5.8,0l-.08,0a6.52,6.52,0,0,0-1.57,1.07l-.7.63-73.74,67c-4.2,3.81-2.5,11.68,5.64,12.17a2.39,2.39,0,0,0,1.75-.6l3.93-3.57v82.62a2.29,2.29,0,0,0,2.29,2.29H209.44a2.29,2.29,0,0,0,2.29-2.29V330.61l3.93,3.57a2.39,2.39,0,0,0,1.75.6C225.55,334.29,227.25,326.42,223.05,322.61Zm-92.46,79.28V361.55a13.65,13.65,0,0,1,14.29-13.73,13.51,13.51,0,0,1,12.65,13.5v40.57Zm67.51,0H171.16V361.32a27.36,27.36,0,0,0-27.26-27,26.88,26.88,0,0,0-26.94,27v40.89H90v-84L143.9,269l54.2,49.18Z"/><path class="cls-4" d="M441.94,323.85l-72.75-66.09-.7-.63a6.72,6.72,0,0,0-1.56-1.06l-.07,0a6.66,6.66,0,0,0-5.72,0l-.08,0a6.66,6.66,0,0,0-1.55,1.06l-.69.62-72.76,66.1c-4.14,3.76-2.46,11.53,5.57,12a2.32,2.32,0,0,0,1.72-.6l3.88-3.52v81.52a2.26,2.26,0,0,0,2.26,2.26h129a2.26,2.26,0,0,0,2.26-2.26V331.74l3.88,3.52a2.32,2.32,0,0,0,1.72.6C444.4,335.38,446.08,327.61,441.94,323.85Zm-91.23,78.22v-39.8a13.47,13.47,0,0,1,14.1-13.55A13.32,13.32,0,0,1,377.29,362v40Zm66.61,0H390.74v-40a27,27,0,0,0-26.9-26.69,26.53,26.53,0,0,0-26.58,26.69v40.33H310.68V319.51L363.84,271l53.48,48.52Z"/><path class="cls-3" d="M363.69,125.2a8.74,8.74,0,0,0-11.5-4.49c-53.6,23.45-87.32,81.83-97.49,168.84-.89,7.56-1.56,15-2.06,22.28a.16.16,0,0,1-.31,0c-.21-.53-.43-1-.65-1.57a11.86,11.86,0,0,1-5,5.95c-.44,2-.89,4.05-1.26,6.25-.33,1.95-.6,3.94-.84,5.94a5.24,5.24,0,0,1,0,1,6.15,6.15,0,0,1,0,1,5.83,5.83,0,0,1-.14,1.86,5.9,5.9,0,0,1,0,1.26,5.71,5.71,0,0,1,0,1,63.91,63.91,0,0,1,.6,9.49,6,6,0,0,1,.09,1.58c0,.32,0,.64.07,1,0,.08,0,.17,0,.25a288.92,288.92,0,0,1,7.22,36.06h0c1.07,17.79,2.62,29.13,2.77,30.17a8.48,8.48,0,0,0,2.12,4.56,9.53,9.53,0,0,1,2.65.91,10.83,10.83,0,0,1,3.43-.52l.45,0a10.82,10.82,0,0,1,3.67-.61l.37,0,.22,0a11.27,11.27,0,0,1,2.14.2,9.25,9.25,0,0,0,2.29-6.56q-.78-15.21-2.57-28.88h0c-3.63-61.78-1.75-205.63,89.2-245.43A8.74,8.74,0,0,0,363.69,125.2Z"/><circle class="cls-5" cx="257.3" cy="412.6" r="15.12"/></svg>